HIERARCHY
ROOT Hips
{
	OFFSET 50.339100 -1.801778 51.468399
	CHANNELS 6 Xposition Yposition Zposition Xrotation Yrotation Zrotation
	JOINT spine
	{
		OFFSET 0.000000 -0.448574 7.800591
		CHANNELS 3 Xrotation Yrotation Zrotation
		JOINT spine1
		{
			OFFSET 0.000000 -0.000001 10.136398
			CHANNELS 3 Xrotation Yrotation Zrotation
			JOINT spine2
			{
				OFFSET 0.000000 -0.000002 9.712509
				CHANNELS 3 Xrotation Yrotation Zrotation
				JOINT Neck
				{
					OFFSET 0.000000 -1.188874 24.936104
					CHANNELS 3 Xrotation Yrotation Zrotation
					JOINT Head
					{
						OFFSET 0.000000 -0.000001 7.533844
						CHANNELS 3 Xrotation Yrotation Zrotation
						End Site
						{
							OFFSET 0.000000 6.014017 18.236099
						}
					}
				}
				JOINT RightShoulder
				{
					OFFSET -4.089649 0.569455 10.488800
					CHANNELS 3 Xrotation Yrotation Zrotation
					JOINT RightArm
					{
						OFFSET 0.000000 -0.000002 13.756996
						CHANNELS 3 Xrotation Yrotation Zrotation
						JOINT RightArmRoll
						{
							OFFSET 0.000000 -0.000001 6.944778
							CHANNELS 3 Xrotation Yrotation Zrotation
							JOINT RightForeArm
							{
								OFFSET 0.000000 -0.000003 20.227692
								CHANNELS 3 Xrotation Yrotation Zrotation
								JOINT RightForeArmRoll
								{
									OFFSET 0.000000 -0.000001 7.793121
									CHANNELS 3 Xrotation Yrotation Zrotation
									JOINT RightHand
									{
										OFFSET 0.000000 -0.000003 15.639099
										CHANNELS 3 Xrotation Yrotation Zrotation
										End Site
										{
											OFFSET 0.000000 -0.000000 0.100006
										}
									}
								}
							}
						}
					}
				}
				JOINT LeftShoulder
				{
					OFFSET 4.089649 0.569455 10.488800
					CHANNELS 3 Xrotation Yrotation Zrotation
					JOINT LeftArm
					{
						OFFSET 0.000000 -0.000002 13.756996
						CHANNELS 3 Xrotation Yrotation Zrotation
						JOINT LeftArmRoll
						{
							OFFSET 0.000000 -0.000001 6.944778
							CHANNELS 3 Xrotation Yrotation Zrotation
							JOINT LeftForeArm
							{
								OFFSET 0.000000 -0.000003 20.227692
								CHANNELS 3 Xrotation Yrotation Zrotation
								JOINT LeftForeArmRoll
								{
									OFFSET 0.000000 -0.000001 7.793137
									CHANNELS 3 Xrotation Yrotation Zrotation
									JOINT LeftHand
									{
										OFFSET 0.000000 -0.000003 15.639099
										CHANNELS 3 Xrotation Yrotation Zrotation
										End Site
										{
											OFFSET 0.000000 -0.000000 0.100006
										}
									}
								}
							}
						}
					}
				}
			}
		}
	}
	JOINT RightUpLeg
	{
		OFFSET -6.914158 1.063580 -1.267879
		CHANNELS 3 Xrotation Yrotation Zrotation
		JOINT RightUpLegRoll
		{
			OFFSET 0.000000 -0.000003 18.337795
			CHANNELS 3 Xrotation Yrotation Zrotation
			JOINT RightLeg
			{
				OFFSET 0.000000 0.000004 -22.708500
				CHANNELS 3 Xrotation Yrotation Zrotation
				JOINT RightLegRoll
				{
					OFFSET 0.000000 -0.000004 22.782803
					CHANNELS 3 Xrotation Yrotation Zrotation
					JOINT RightFoot
					{
						OFFSET 0.000000 -0.000003 18.962898
						CHANNELS 3 Xrotation Yrotation Zrotation
						JOINT RightToeBase
						{
							OFFSET 0.000000 -0.000003 15.851997
							CHANNELS 3 Xrotation Yrotation Zrotation
							End Site
							{
								OFFSET 0.006718 0.884891 7.677010
							}
						}
					}
				}
			}
		}
	}
	JOINT LeftUpLeg
	{
		OFFSET 6.914158 1.063580 -1.267879
		CHANNELS 3 Xrotation Yrotation Zrotation
		JOINT LeftUpLegRoll
		{
			OFFSET 0.000000 -0.000003 18.337902
			CHANNELS 3 Xrotation Yrotation Zrotation
			JOINT LeftLeg
			{
				OFFSET 0.000000 -0.000004 22.708405
				CHANNELS 3 Xrotation Yrotation Zrotation
				JOINT LeftLegRoll
				{
					OFFSET 0.000000 -0.000004 22.993401
					CHANNELS 3 Xrotation Yrotation Zrotation
					JOINT LeftFoot
					{
						OFFSET 0.000000 -0.000003 18.752205
						CHANNELS 3 Xrotation Yrotation Zrotation
						JOINT LeftToeBase
						{
							OFFSET 0.000000 -0.000003 15.852005
							CHANNELS 3 Xrotation Yrotation Zrotation
							End Site
							{
								OFFSET -0.030113 0.884892 7.677017
							}
						}
					}
				}
			}
		}
	}
}
MOTION
Frames: 7
Frame Time: 0.041667
54.854305 -36.903515 93.823090 -1.954119 1.679603 2.612328 -1.106956 -0.322651 0.018840 1.789054 -0.648409 0.045849 3.434180 -0.648085 0.053603 21.620947 4.122581 -0.418008 -9.858442 -2.138558 -0.250763 -26.648366 -79.956926 -30.495729 81.837243 -87.952052 99.772275 -0.000000 0.000001 -0.000001 18.593988 -10.240632 0.511554 0.000003 0.000025 -3.000001 -5.000259 -7.998803 0.000166 -6.241093 62.486894 7.662303 8.855492 108.885435 -20.616318 -0.000000 -0.000001 -0.000001 16.497060 6.726354 0.303778 0.000002 -0.000007 3.000001 -5.000213 7.999122 -0.000094 -2.381384 179.117763 -1.985412 -179.999991 0.000005 -1.044003 168.547731 -0.814454 -0.718996 -0.000000 -0.000002 0.181180 71.570356 6.446034 3.174217 25.456957 -7.355616 0.000012 -3.213061 177.686634 5.294470 -0.000004 -0.000004 -1.258419 -15.270712 4.230419 0.922143 -0.000000 -0.000001 -0.354752 74.968737 -7.477784 0.174777 25.467352 7.355619 -0.000002 
54.855705 -36.890915 93.819397 -1.952336 1.677555 2.673216 -1.100409 -0.322481 0.017093 1.802145 -0.648827 0.041565 3.447261 -0.648550 0.049319 21.638666 4.149437 -0.433578 -9.814610 -2.152006 -0.263938 -26.578015 -79.919197 -30.423227 83.279424 -87.963766 101.156536 -0.000000 0.000000 0.000001 18.632742 -10.265166 0.519609 0.000004 0.000025 -2.999999 -5.000259 -7.998803 0.000167 -6.220662 62.508983 7.640508 8.750073 108.855197 -20.539502 0.000000 0.000000 -0.000000 16.462047 6.704536 0.306610 0.000002 -0.000006 3.000001 -5.000214 7.999122 -0.000095 -2.378611 179.111766 -1.987495 -179.999991 0.000005 -1.044003 168.545026 -0.814447 -0.718023 -0.000001 -0.000002 0.181176 71.579966 6.448377 3.167742 25.456955 -7.355616 0.000012 -3.240119 177.690704 5.307796 -0.000005 -0.000004 -1.258010 -15.290106 4.217350 0.922131 -0.000001 -0.000001 -0.355109 74.963245 -7.475037 0.162676 25.467354 7.355621 -0.000002 
54.856701 -36.892815 93.810791 -1.951585 1.674918 2.734534 -1.093689 -0.322233 0.015338 1.815566 -0.649127 0.037226 3.460682 -0.648897 0.044980 21.657377 4.178965 -0.450058 -9.772587 -2.169852 -0.277907 -26.508333 -79.881316 -30.351411 84.754117 -87.975289 102.578329 -0.000000 0.000001 0.000002 18.670759 -10.287450 0.527082 0.000005 0.000025 -2.999999 -5.000259 -7.998802 0.000167 -6.199962 62.531065 7.618406 8.645256 108.824058 -20.463669 -0.000000 -0.000000 -0.000000 16.426023 6.682509 0.309447 0.000000 -0.000007 3.000000 -5.000213 7.999121 -0.000094 -2.374263 179.106767 -1.988835 -179.999991 0.000005 -1.044003 168.542417 -0.815416 -0.718257 0.000000 -0.000002 0.181170 71.589965 6.450617 3.161427 25.456953 -7.355616 0.000012 -3.265098 177.694748 5.321885 -0.000004 -0.000004 -1.257610 -15.308191 4.203980 0.921985 -0.000001 -0.000001 -0.355470 74.957385 -7.472440 0.150631 25.467351 7.355619 -0.000002 
54.850399 -36.883415 93.812790 -1.951558 1.671880 2.796170 -1.086848 -0.321931 0.013575 1.829227 -0.649344 0.032849 3.474353 -0.649163 0.040603 21.676746 4.210363 -0.467187 -9.731830 -2.190766 -0.292416 -26.439140 -79.843320 -30.280083 86.254668 -87.986217 104.029211 -0.000000 0.000001 0.000001 18.708071 -10.308045 0.534088 0.000005 0.000025 -2.999999 -5.000261 -7.998802 0.000168 -6.179104 62.553270 7.596113 8.540511 108.792988 -20.388367 0.000000 0.000000 0.000001 16.389295 6.660345 0.312276 0.000001 -0.000007 3.000002 -5.000216 7.999123 -0.000095 -2.368825 179.101767 -1.989624 -179.999991 0.000005 -1.044003 168.539917 -0.816400 -0.717498 -0.000001 -0.000002 0.181162 71.600279 6.452822 3.155191 25.456953 -7.355617 0.000012 -3.288635 177.699789 5.336455 -0.000005 -0.000004 -1.257240 -15.325367 4.190408 0.921747 -0.000000 -0.000001 -0.355832 74.951327 -7.469898 0.138767 25.467352 7.355620 -0.000003 
54.846004 -36.877316 93.817795 -1.951959 1.668601 2.857980 -1.079949 -0.321597 0.011809 1.843028 -0.649516 0.028452 3.488144 -0.649383 0.036203 21.696359 4.242833 -0.484686 -9.691799 -2.213454 -0.307218 -26.370621 -79.805296 -30.209432 87.781455 -87.996196 105.508302 -0.000000 0.000000 0.000000 18.745126 -10.327695 0.540870 0.000006 0.000025 -2.999999 -5.000262 -7.998802 0.000169 -6.158106 62.575468 7.573679 8.435611 108.761993 -20.313090 -0.000001 -0.000001 0.000001 16.352170 6.638091 0.315085 0.000001 -0.000007 3.000002 -5.000215 7.999122 -0.000095 -2.362747 179.097764 -1.990124 -179.999991 0.000005 -1.044003 168.537513 -0.816393 -0.716534 -0.000001 -0.000002 0.181156 71.610674 6.454988 3.149041 25.456955 -7.355615 0.000012 -3.311343 177.704829 5.351337 -0.000005 -0.000004 -1.256880 -15.342041 4.176704 0.921449 0.000001 -0.000001 -0.356196 74.945159 -7.467373 0.126891 25.467352 7.355620 -0.000002 
54.838902 -36.875317 93.814301 -1.952445 1.665262 2.919841 -1.073029 -0.321256 0.010041 1.856859 -0.649678 0.024048 3.501975 -0.649593 0.031798 21.716194 4.275567 -0.502315 -9.651953 -2.236609 -0.322071 -26.302669 -79.767252 -30.139337 89.322537 -88.004850 107.002071 0.000000 0.000000 -0.000001 18.782182 -10.347140 0.547634 0.000005 0.000025 -3.000000 -5.000260 -7.998801 0.000167 -6.137061 62.597673 7.551175 8.330908 108.730068 -20.238107 -0.000000 -0.000001 0.000000 16.314943 6.615824 0.317868 0.000001 -0.000006 3.000001 -5.000215 7.999123 -0.000093 -2.356519 179.093762 -1.990558 -179.999991 0.000005 -1.044003 168.535123 -0.817363 -0.716767 -0.000000 -0.000001 0.181147 71.621090 6.457181 3.142794 25.456952 -7.355616 0.000012 -3.333846 177.710867 5.366231 -0.000004 -0.000004 -1.256519 -15.358614 4.162974 0.921135 -0.000000 -0.000001 -0.356560 74.939005 -7.464844 0.115019 25.467354 7.355620 -0.000002 
54.844803 -36.872410 93.819687 -1.952732 1.662044 2.981610 -1.066138 -0.320930 0.008276 1.870630 -0.649865 0.019656 3.515746 -0.649829 0.027405 21.735713 4.307743 -0.519769 -9.611738 -2.258903 -0.336730 -26.234903 -79.729119 -30.069423 90.870018 -88.011844 108.501257 -0.000000 0.000001 -0.000000 18.819268 -10.367046 0.554530 0.000002 0.000025 -3.000000 -5.000261 -7.998803 0.000166 -6.116064 62.619960 7.528731 8.225340 108.699182 -20.162018 -0.000000 -0.000001 -0.000001 16.277932 6.593595 0.320622 0.000001 -0.000007 3.000000 -5.000214 7.999122 -0.000093 -2.350612 179.088762 -1.991106 -179.999991 0.000005 -1.044003 168.532609 -0.818333 -0.716003 -0.000001 -0.000002 0.181141 71.631397 6.459368 3.136653 25.456955 -7.355616 0.000012 -3.356753 177.715921 5.381024 -0.000005 -0.000004 -1.256150 -15.375391 4.149300 0.920831 -0.000001 -0.000001 -0.356923 74.932858 -7.462338 0.103143 25.467352 7.355621 -0.000002 
